<svg xmlns="http://www.w3.org/2000/svg" viewBox="0 0 1273.2 258.6">
<style type="text/css">
	.st0{display:none;}
	.st1{display:inline;}
	.st2{fill:#FFFFFF;}
	.st3{fill:#FFFFFF;}
</style>
<g id="Blue" class="st0">
	<g class="st1">
		<g>
			<g>
				<path class="st2" d="M86.8,81.9c2.5,0,4.6-1,5.7-2.6l11.8-17.6H164l12.6,17.6c1.3,1.7,3.3,2.6,5.8,2.6c4.3,0,9.2-2.9,9.2-6.8
					c0-1-0.3-2.1-1-3.1L142.8,6.6l0,0c-2.1-2.8-5.2-4.2-9.5-4.2c-4.5,0-7.6,1.4-9.6,4.2l-45,65.5c-0.4,0.7-0.9,1.7-0.9,2.9
					C77.8,79,82.6,81.9,86.8,81.9z M113.5,48l19.8-29.4L154.2,48H113.5z"/>
				<path class="st2" d="M182.4,84.3c-3.3,0-6-1.3-7.7-3.5l-11.9-16.7h-57.2L94.5,80.6c-1.6,2.3-4.4,3.7-7.7,3.7
					c-5.4,0-11.4-3.8-11.4-9.2c0-1.8,0.7-3.2,1.3-4.1l0.1-0.1l45-65.5c2.5-3.5,6.4-5.2,11.6-5.2c5.1,0,8.8,1.7,11.4,5.1l47.9,65.6
					c0.9,1.4,1.4,2.9,1.4,4.4C194,80.6,187.9,84.3,182.4,84.3z M103.1,59.4h62.2L178.6,78c0.8,1,2.1,1.6,3.8,1.6
					c3.4,0,6.8-2.2,6.8-4.4c0-0.6-0.2-1.2-0.6-1.8L140.9,8c-1.7-2.2-4-3.2-7.6-3.2c-3.7,0-6.2,1-7.7,3.2L80.7,73.4
					c-0.3,0.5-0.6,1.1-0.6,1.6c0,2.2,3.4,4.5,6.7,4.5c1.7,0,3.1-0.6,3.7-1.6L103.1,59.4z M158.8,50.4h-49.8l24.2-36L158.8,50.4z
					 M118,45.6h31.7l-16.3-22.9L118,45.6z"/>
			</g>
			<g>
				<path class="st2" d="M223.8,81.4H286c22.3,0,33.6-7,33.6-20.7V23.5c0-13.8-11.3-20.7-33.6-20.7h-62.1c-4.1,0-6.2,2.1-6.2,6v66.5
					C217.6,79.2,219.8,81.4,223.8,81.4z M234.6,67.7V16.5h51c16.1,0,17.3,5.4,17.3,7v37.1c0,4.3-6.6,7-17.3,7H234.6z"/>
				<path class="st2" d="M286,83.8h-62.1c-5.3,0-8.6-3.3-8.6-8.5V8.8c0-5.3,3.2-8.4,8.6-8.4H286c16.4,0,36,4,36,23.1v37.1
					C322,79.8,302.4,83.8,286,83.8z M223.8,5.2c-2.8,0-3.9,1-3.9,3.7v66.5c0,2.6,1.2,3.8,3.9,3.8H286c21,0,31.3-6,31.3-18.4V23.5
					c0-12.4-10.2-18.4-31.3-18.4H223.8z M285.5,70.1h-53.3V14.2h53.3c17.8,0,19.7,6.6,19.7,9.4v37.1
					C305.2,66.5,297.9,70.1,285.5,70.1z M236.9,65.3h48.6c9.7,0,15-2.4,15-4.6V23.5c0-1.6-3.1-4.6-15-4.6h-48.6V65.3z"/>
			</g>
			<g>
				<path class="st2" d="M390.1,77.7c2.1,2.8,5.1,4.2,9.5,4.2c4.5,0,7.6-1.3,9.6-4.2l47.6-65.4c0.7-0.8,1.1-2,1.1-3.1
					c0-3.9-5-6.9-9.4-6.9c-2.6,0-4.6,1-5.8,2.7L400,64.8L356.7,5.1c-1.4-2-4.1-2.7-6.2-2.7c-4.5,0-9.6,3-9.6,6.8
					c0,1.3,0.5,2.3,1.1,3.1L390.1,77.7z"/>
				<path class="st2" d="M399.6,84.2c-5.2,0-8.9-1.7-11.4-5.1l-48.3-65.5c-0.7-1.1-1.5-2.5-1.5-4.4c0-4.3,4.9-9.1,12-9.1
					c1.3,0,5.8,0.3,8.2,3.7l41.3,57.1l41-57.1c1.6-2.3,4.4-3.7,7.7-3.7c5.6,0,11.8,3.8,11.8,9.2c0,1.6-0.6,3.3-1.6,4.5l-47.6,65.3
					C408.7,82.5,404.9,84.2,399.6,84.2z M343.9,10.9L392,76.3c1.6,2.2,3.9,3.2,7.6,3.2c3.7,0,6.1-1,7.7-3.2l47.8-65.5
					c0.4-0.4,0.6-1,0.6-1.5c0-2.2-3.5-4.5-7-4.5c-1.7,0-3.1,0.6-3.8,1.7L400,68.9L354.7,6.5c-0.8-1.2-2.8-1.7-4.3-1.7
					c-3.5,0-7.3,2.3-7.3,4.4C343.2,9.7,343.4,10.3,343.9,10.9z"/>
			</g>
			<g>
				<path class="st2" d="M512.8,81.4h52.8c4.8,0,5.5-3.5,5.5-6.9c0-3.6-0.7-6.9-5.5-6.9h-52.4c-10.6,0-17.2-2.7-17.2-7V49.5H566
					c4.8,0,5.5-3.3,5.5-6.9c0-3.6-0.7-6.9-5.5-6.9h-69.9V23.5c0-4.4,6.4-7,17.2-7h15.9c4.7,0,5.4-3.3,5.4-6.9s-0.6-6.9-5.4-6.9
					h-16.3c-22.3,0-33.6,7-33.6,20.7v37.1C479.2,74.4,490.5,81.4,512.8,81.4z"/>
				<path class="st2" d="M565.7,83.8h-52.8c-16.4,0-36-4-36-23.1V23.5c0-10.5,6.2-23.1,36-23.1h16.3c5.1,0,7.7,3.1,7.7,9.2
					s-2.6,9.2-7.7,9.2h-15.9c-10.2,0-14.9,2.4-14.9,4.6v9.9H566c5.2,0,7.8,3.1,7.8,9.2s-2.6,9.2-7.8,9.2h-67.6v8.7
					c0,2.3,5.1,4.6,14.9,4.6h52.4c5.2,0,7.8,3.1,7.8,9.2C573.5,80.7,570.9,83.8,565.7,83.8z M512.8,5.2c-21,0-31.3,6-31.3,18.4v37.1
					c0,12.4,10.2,18.4,31.3,18.4h52.8c2.2,0,3.1-0.6,3.1-4.5c0-4.1-0.9-4.5-3.1-4.5h-52.4c-12.3,0-19.6-3.5-19.6-9.4V47.2H566
					c2.1,0,3.1-0.4,3.1-4.5s-0.9-4.5-3.1-4.5h-72.3V23.5c0-6,7.1-9.4,19.6-9.4h15.9c2,0,3-0.4,3-4.5c0-4-1-4.5-3-4.5H512.8z"/>
			</g>
			<g>
				<path class="st2" d="M608.3,81.8c4.4,0,8.5-0.7,8.5-6.1V24.4L683.1,78l0,0c4,3.2,5.2,3.8,9.4,3.8c4.2,0,8.7-0.5,8.7-6.1V8.5
					c0-5.4-4.1-6.1-8.5-6.1c-4.4,0-8.4,0.7-8.4,6.1v51.3L619,6.5c-3.6-2.9-6-4.2-11-4.2c-3.8,0-8.1,0.7-8.1,6.1v67.2
					C599.9,81.1,603.9,81.8,608.3,81.8z"/>
				<path class="st2" d="M692.5,84.2c-4.9,0-6.5-0.9-10.9-4.3l-62.4-50.4v46.3c0,8.5-8.2,8.5-10.9,8.5c-2.7,0-10.8,0-10.8-8.5V8.5
					C597.5,2.9,601,0,608,0c5.7,0,8.6,1.5,12.5,4.7l61.4,50.2V8.5C681.9,0,690,0,692.7,0c2.7,0,10.9,0,10.9,8.5v67.2
					C703.6,84.2,695.5,84.2,692.5,84.2z M684.5,76.2c3.8,3,4.5,3.3,7.9,3.3c5.5,0,6.4-1.1,6.4-3.8V8.5c0-2.5-0.9-3.8-6.2-3.8
					c-5.2,0-6,1.2-6,3.8v56.3L617.5,8.4c-3.4-2.7-5.2-3.6-9.5-3.6c-4.8,0-5.7,1.3-5.7,3.8v67.2c0,2.6,0.9,3.8,6,3.8
					c5.3,0,6.2-1.2,6.2-3.8V19.5L684.5,76.2z"/>
			</g>
			<g>
				<path class="st2" d="M732.7,16.5h31.8v59.2c0,5.4,4,6.1,8.4,6.1c4.4,0,8.5-0.7,8.5-6.1V16.5h31.9c4.8,0,5.5-3.3,5.5-6.9
					s-0.7-6.9-5.5-6.9h-80.7c-4.8,0-5.5,3.3-5.5,6.9S727.9,16.5,732.7,16.5z"/>
				<path class="st2" d="M772.9,84.2c-2.7,0-10.8,0-10.8-8.5V18.9h-29.4c-5.2,0-7.8-3.1-7.8-9.2s2.6-9.2,7.8-9.2h80.7
					c5.2,0,7.8,3.1,7.8,9.2s-2.6,9.2-7.8,9.2h-29.5v56.8C783.8,84.2,775.6,84.2,772.9,84.2z M732.7,5.2c-2.1,0-3.1,0.4-3.1,4.5
					c0,4.1,0.9,4.5,3.1,4.5h34.2v61.6c0,2.6,0.9,3.8,6,3.8c5.3,0,6.2-1.2,6.2-3.8V14.2h34.3c2.1,0,3.1-0.4,3.1-4.5
					c0-4.1-0.9-4.5-3.1-4.5H732.7z"/>
			</g>
			<g>
				<path class="st2" d="M878,81.4h33.8c22.3,0,33.6-7,33.6-20.7V8.5c0-5.4-4-6.1-8.4-6.1c-4.4,0-8.5,0.7-8.5,6.1v52.2
					c0,4.3-6.6,7-17.1,7h-32.9c-10.6,0-17.1-2.7-17.1-7V8.5c0-5.4-4.1-6.1-8.5-6.1c-4.4,0-8.4,0.7-8.4,6.1v52.2
					C844.4,74.4,855.7,81.4,878,81.4z"/>
				<path class="st2" d="M911.8,83.8H878c-16.4,0-36-4-36-23.1V8.5C842,0,850.1,0,852.8,0c2.7,0,10.9,0,10.9,8.5v52.2
					c0,2.3,5.1,4.6,14.7,4.6h32.9c9.7,0,14.7-2.3,14.7-4.6V8.5C926.1,0,934.3,0,937,0c2.7,0,10.8,0,10.8,8.5v52.2
					C947.8,71.2,941.5,83.8,911.8,83.8z M852.8,4.7c-5.2,0-6,1.2-6,3.8v52.2C846.8,73,857,79,878,79h33.8c21,0,31.3-6,31.3-18.4V8.5
					c0-2.6-0.9-3.8-6-3.8c-5.2,0-6.2,1.2-6.2,3.8v52.2c0,5.9-7.3,9.4-19.5,9.4h-32.9c-12.2,0-19.5-3.5-19.5-9.4V8.5
					C859,5.9,858.1,4.7,852.8,4.7z"/>
			</g>
			<g>
				<path class="st2" d="M983.2,81.8c4.4,0,8.5-0.7,8.5-6.1V54.3l62.4,25.9c2.7,1.4,7.3,1.6,9.2,1.6c2.4,0,8.6,0,8.6-6.1
					c0-2.9-1.4-4.7-4.3-5.8l-26.4-10.2c-9.8-3.8-15.6-5.9-19.6-7.3c4.1,0.1,9,0.1,16.7,0.1h4.4c20.3,0,33.4-7.2,33.4-18.2V21
					c0-11.1-13.1-18.2-33.4-18.2h-61.6c-5.2,0-6.3,3.3-6.3,6v66.9C974.8,81.1,978.8,81.8,983.2,81.8z M991.7,39V16.5h49.7
					c11.9,0,17.9,1.9,17.9,5.5v11.4c0,3.7-6,5.5-17.9,5.5H991.7z"/>
				<path class="st2" d="M1063.3,84.2c-2.5,0-7.1-0.2-10.2-1.8l-59-24.5v17.8c0,8.5-8.2,8.5-10.9,8.5c-2.7,0-10.8,0-10.8-8.5V8.8
					c0-5.3,3.3-8.4,8.7-8.4h61.6c21.7,0,35.8,8.1,35.8,20.6v13.3c0,12.5-14,20.6-35.8,20.6h-4.4c-1,0-2,0-3,0c2,0.8,4.3,1.6,6.8,2.6
					l26.4,10.2c3.8,1.4,5.8,4.2,5.8,8.1C1074.3,79.6,1072.4,84.2,1063.3,84.2z M989.4,50.8l65.9,27.4c1.8,1,5.3,1.3,8,1.3
					c5.2,0,6.3-1.4,6.3-3.8c0-1.6-0.5-2.8-2.7-3.6l-26.4-10.2c-10.4-4-16.2-6.1-19.6-7.3l-14.1-5l14.9,0.4c3.9,0.1,8.7,0.1,16.6,0.1
					h4.4c18.9,0,31-6.2,31-15.9V21c0-9.6-12.2-15.9-31-15.9h-61.6c-2.9,0-4,1-4,3.7v66.9c0,2.6,0.9,3.8,6,3.8c5.3,0,6.2-1.2,6.2-3.8
					V50.8z M1041.4,41.3h-52V14.2h52c8.7,0,20.3,0.8,20.3,7.9v11.4C1061.7,40.5,1050.1,41.3,1041.4,41.3z M994.1,36.6h47.3
					c15.3,0,15.5-3.1,15.5-3.2V22.1c0,0-0.2-3.2-15.5-3.2h-47.3V36.6z"/>
			</g>
			<g>
				<path class="st2" d="M1137.3,81.4h52.8c4.8,0,5.5-3.5,5.5-6.9c0-3.6-0.7-6.9-5.5-6.9h-52.4c-10.6,0-17.2-2.7-17.2-7V49.5h69.9
					c4.8,0,5.5-3.3,5.5-6.9c0-3.6-0.7-6.9-5.5-6.9h-69.9V23.5c0-4.4,6.4-7,17.2-7h15.9c4.7,0,5.4-3.3,5.4-6.9s-0.6-6.9-5.4-6.9
					h-16.3c-22.3,0-33.6,7-33.6,20.7v37.1C1103.7,74.4,1115,81.4,1137.3,81.4z"/>
				<path class="st2" d="M1190.1,83.8h-52.8c-16.4,0-36-4-36-23.1V23.5c0-10.5,6.2-23.1,36-23.1h16.3c5.1,0,7.7,3.1,7.7,9.2
					s-2.6,9.2-7.7,9.2h-15.9c-10.2,0-14.9,2.4-14.9,4.6v9.9h67.6c5.2,0,7.8,3.1,7.8,9.2s-2.6,9.2-7.8,9.2h-67.6v8.7
					c0,2.3,5.1,4.6,14.9,4.6h52.4c5.2,0,7.8,3.1,7.8,9.2C1198,80.7,1195.3,83.8,1190.1,83.8z M1137.3,5.2c-21,0-31.3,6-31.3,18.4
					v37.1c0,12.4,10.2,18.4,31.3,18.4h52.8c2.2,0,3.1-0.6,3.1-4.5c0-4.1-0.9-4.5-3.1-4.5h-52.4c-12.3,0-19.6-3.5-19.6-9.4V47.2h72.3
					c2.1,0,3.1-0.4,3.1-4.5s-0.9-4.5-3.1-4.5h-72.3V23.5c0-6,7.1-9.4,19.6-9.4h15.9c2,0,3-0.4,3-4.5c0-4-1-4.5-3-4.5H1137.3z"/>
			</g>
			<g>
				<path class="st2" d="M163.9,175.2H83.2c-4.8,0-5.5,3.3-5.5,6.9c0,3.6,0.7,6.9,5.5,6.9H115v59.2c0,5.4,4,6.1,8.4,6.1
					c4.4,0,8.5-0.7,8.5-6.1v-59.2h31.9c4.8,0,5.5-3.3,5.5-6.9C169.3,178.5,168.7,175.2,163.9,175.2z"/>
				<path class="st2" d="M123.5,256.6c-2.7,0-10.8,0-10.8-8.5v-56.8H83.2c-5.2,0-7.8-3.1-7.8-9.2s2.6-9.2,7.8-9.2h80.7
					c5.2,0,7.8,3.1,7.8,9.2s-2.6,9.2-7.8,9.2h-29.5v56.8C134.4,256.6,126.1,256.6,123.5,256.6z M83.2,177.6c-2.1,0-3.1,0.4-3.1,4.5
					c0,4.1,0.9,4.5,3.1,4.5h34.2v61.6c0,2.6,0.9,3.8,6,3.8c5.3,0,6.2-1.2,6.2-3.8v-61.6h34.3c2.1,0,3.1-0.4,3.1-4.5
					c0-4.1-0.9-4.5-3.1-4.5H83.2z"/>
			</g>
			<g>
				<path class="st2" d="M279,221.9c4.8,0,5.5-3.3,5.5-6.9s-0.7-6.9-5.5-6.9H209v-12.3c0-4.4,6.4-7,17.2-7h15.9
					c4.7,0,5.4-3.3,5.4-6.9c0-3.6-0.6-6.9-5.4-6.9h-16.3c-22.3,0-33.6,7-33.6,20.7v37.1c0,13.8,11.3,20.7,33.6,20.7h52.8
					c4.8,0,5.5-3.5,5.5-6.9c0-3.6-0.7-6.9-5.5-6.9h-52.4c-10.6,0-17.2-2.7-17.2-7v-11.1H279z"/>
				<path class="st2" d="M278.6,256.2h-52.8c-16.4,0-36-4-36-23.1v-37.1c0-10.5,6.2-23.1,36-23.1h16.3c5.1,0,7.7,3.1,7.7,9.2
					s-2.6,9.2-7.7,9.2h-15.9c-10.2,0-14.9,2.4-14.9,4.6v9.9H279c5.2,0,7.8,3.1,7.8,9.2c0,6.1-2.6,9.2-7.8,9.2h-67.6v8.7
					c0,2.3,5.1,4.6,14.9,4.6h52.4c5.2,0,7.8,3.1,7.8,9.2S283.8,256.2,278.6,256.2z M225.8,177.6c-21,0-31.3,6-31.3,18.4v37.1
					c0,12.4,10.2,18.4,31.3,18.4h52.8c2.2,0,3.1-0.6,3.1-4.5c0-4.1-0.9-4.5-3.1-4.5h-52.4c-12.3,0-19.6-3.5-19.6-9.4v-13.5H279
					c2.1,0,3.1-0.4,3.1-4.5c0-4.1-0.9-4.5-3.1-4.5h-72.3v-14.6c0-6,7.1-9.4,19.6-9.4h15.9c2,0,3-0.4,3-4.5c0-4-1-4.5-3-4.5H225.8z"
					/>
			</g>
			<g>
				<path class="st2" d="M345.9,188.9h53.3c4.8,0,5.5-3.3,5.5-6.9c0-3.6-0.7-6.9-5.5-6.9h-53.7c-22.3,0-33.6,7-33.6,20.7v37.1
					c0,13.8,11.3,20.7,33.6,20.7h53.8c5.4,0,5.4-4.5,5.4-6.9c0-3.3-0.4-6.9-5.4-6.9h-53.4c-10.6,0-17.2-2.7-17.2-7v-37.1
					C328.7,191.5,335.1,188.9,345.9,188.9z"/>
				<path class="st2" d="M399.3,256.2h-53.8c-16.4,0-36-4-36-23.1v-37.1c0-10.5,6.2-23.1,36-23.1h53.7c5.2,0,7.8,3.1,7.8,9.2
					s-2.6,9.2-7.8,9.2h-53.3c-10.2,0-14.9,2.4-14.9,4.6v37.1c0,2.3,5.1,4.6,14.9,4.6h53.4c7.7,0,7.7,7,7.7,9.2
					C407,253.1,404.4,256.2,399.3,256.2z M345.5,177.6c-21,0-31.3,6-31.3,18.4v37.1c0,12.4,10.2,18.4,31.3,18.4h53.8
					c2.4,0,3-0.9,3-4.5c0-3.9-0.7-4.5-3-4.5h-53.4c-12.3,0-19.6-3.5-19.6-9.4v-37.1c0-6,7.1-9.4,19.6-9.4h53.3
					c2.1,0,3.1-0.4,3.1-4.5c0-4.1-0.9-4.5-3.1-4.5H345.5z"/>
			</g>
			<g>
				<path class="st2" d="M526.6,174.8c-4.4,0-8.5,0.7-8.5,6.1v27.3h-68.2v-27.3c0-5.4-4.1-6.1-8.5-6.1c-4.4,0-8.4,0.7-8.4,6.1v67.2
					c0,5.4,4,6.1,8.4,6.1c4.4,0,8.5-0.7,8.5-6.1v-26.2h68.2v26.2c0,5.4,4.1,6.1,8.5,6.1c4.4,0,8.4-0.7,8.4-6.1v-67.2
					C535.1,175.5,531,174.8,526.6,174.8z"/>
				<path class="st2" d="M526.6,256.6c-2.7,0-10.9,0-10.9-8.5v-23.8h-63.5v23.8c0,8.5-8.2,8.5-10.9,8.5c-2.7,0-10.8,0-10.8-8.5
					v-67.2c0-8.5,8.1-8.5,10.8-8.5c2.7,0,10.9,0,10.9,8.5v24.9h63.5v-24.9c0-8.5,8.2-8.5,10.9-8.5c2.7,0,10.8,0,10.8,8.5v67.2
					C537.4,256.6,529.3,256.6,526.6,256.6z M447.5,219.6h72.9v28.5c0,2.6,0.9,3.8,6.2,3.8c5.2,0,6-1.2,6-3.8v-67.2
					c0-2.6-0.9-3.8-6-3.8c-5.3,0-6.2,1.2-6.2,3.8v29.7h-72.9v-29.7c0-2.5-0.9-3.8-6.2-3.8c-5.2,0-6,1.2-6,3.8v67.2
					c0,2.6,0.9,3.8,6,3.8c5.3,0,6.2-1.2,6.2-3.8V219.6z"/>
			</g>
		</g>
		<path class="st2" d="M1254.4,147.4c-9,0-16.6,6.3-18.4,15H957.4c-1.4-4.3-5.4-7.2-9.9-7.2c-5.8,0-10.4,4.7-10.4,10.4
			s4.7,10.4,10.4,10.4c4.5,0,8.5-2.9,9.9-7.2h278.5c1.3,9.2,9.2,16,18.6,16c10.3,0,18.8-8.4,18.8-18.8
			C1273.2,155.8,1264.8,147.4,1254.4,147.4z"/>
		<path class="st2" d="M803.9,221.2c-9.8-0.9-18.5,5.8-20.2,15.4h-76.5c-1.9,0-3.7-0.7-5-2.1l-25.8-25.8c-0.9-0.9-2.1-1.4-3.4-1.4
			h-53.8c-2.6,0-4.7,2.1-4.7,4.7v20.3c-4.4,1.4-7.5,5.6-7.4,10.2c0.1,5.4,4.6,10,10,10.2c2.9,0.1,5.6-0.9,7.7-2.9
			c2.1-2,3.2-4.7,3.2-7.5c0-4.5-2.9-8.4-7-9.9v-18.1c0-0.3,0.3-0.6,0.6-0.6H671c0.8,0,1.6,0.3,2.2,0.9l25.8,25.8
			c1.6,1.6,3.8,2.5,6.2,2.5h78.5c1.6,8.9,9.4,15.5,18.5,15.5c5.2,0,10.1-2.2,13.7-5.9c3.6-3.8,5.4-8.8,5-14
			C820.3,229.5,813,222,803.9,221.2z"/>
		<path class="st2" d="M1058.8,221.2c-9.5-0.9-18.3,5.5-20.3,14.8H873.2c-0.8,0-1.6-0.3-2.2-0.9l-52.8-52.8
			c-0.9-0.9-2.1-1.4-3.4-1.4H729c-1.4-4.4-5.5-7.4-10.2-7.3c-5.4,0.1-10,4.6-10.2,10c-0.1,2.9,0.9,5.6,2.9,7.7
			c2,2.1,4.7,3.2,7.5,3.2c4.5,0,8.5-2.9,9.9-7.1h83.8c0.8,0,1.6,0.3,2.2,0.9l52.8,52.8c0.9,0.9,2.1,1.4,3.4,1.4h167.1
			c1.3,9.3,9.1,16.2,18.6,16.2c5.2,0,10.1-2.2,13.7-5.9c3.6-3.8,5.4-8.8,5-14C1075,229.6,1067.8,222.1,1058.8,221.2z"/>
		<path class="st2" d="M1148.5,191.7c-4.6,0-8.6,3-10,7.3H917.8c-1,0-2.1-0.4-2.8-1.2l-70.3-70.3c-1.6-1.6-3.8-2.5-6.2-2.5H37.3
			c-1.4-9.9-10.1-16.8-20.2-16C8,109.8,0.6,117.3,0,126.5c-0.4,6,2,11.7,6.7,15.6c2.6,2.2,5.8,3.6,9.1,4.1
			c10.2,1.5,19.3-5.1,21.2-14.7h799.4c1.9,0,3.7,0.7,5,2.1l70.7,70.7c0.7,0.7,1.7,1.2,2.8,1.2h223.5c1.7,5,7,8.2,12.5,6.8
			c4-1,7.1-4.5,7.7-8.6C1159.7,197.2,1154.7,191.7,1148.5,191.7z"/>
	</g>
</g>
<g id="White_x5F_bg">
	<g>
		<g>
			<g>
				<path class="st2" d="M86.8,81.9c2.5,0,4.6-1,5.7-2.6l11.8-17.6H164l12.6,17.6c1.3,1.7,3.3,2.6,5.8,2.6c4.3,0,9.2-2.9,9.2-6.8
					c0-1-0.3-2.1-1-3.1L142.8,6.6l0,0c-2.1-2.8-5.2-4.2-9.5-4.2c-4.5,0-7.6,1.4-9.6,4.2l-45,65.5c-0.4,0.7-0.9,1.7-0.9,2.9
					C77.8,79,82.6,81.9,86.8,81.9z M113.5,48l19.8-29.4L154.2,48H113.5z"/>
				<path class="st2" d="M182.4,84.3c-3.3,0-6-1.3-7.7-3.5l-11.9-16.7h-57.2L94.5,80.6c-1.6,2.3-4.4,3.7-7.7,3.7
					c-5.4,0-11.4-3.8-11.4-9.2c0-1.8,0.7-3.2,1.3-4.1l0.1-0.1l45-65.5c2.5-3.5,6.4-5.2,11.6-5.2c5.1,0,8.8,1.7,11.4,5.1l47.9,65.6
					c0.9,1.4,1.4,2.9,1.4,4.4C194,80.6,187.9,84.3,182.4,84.3z M103.1,59.4h62.2L178.6,78c0.8,1,2.1,1.6,3.8,1.6
					c3.4,0,6.8-2.2,6.8-4.4c0-0.6-0.2-1.2-0.6-1.8L140.9,8c-1.7-2.2-4-3.2-7.6-3.2c-3.7,0-6.2,1-7.7,3.2L80.7,73.4
					c-0.3,0.5-0.6,1.1-0.6,1.6c0,2.2,3.4,4.5,6.7,4.5c1.7,0,3.1-0.6,3.7-1.6L103.1,59.4z M158.8,50.4h-49.8l24.2-36L158.8,50.4z
					 M118,45.6h31.7l-16.3-22.9L118,45.6z"/>
			</g>
			<g>
				<path class="st2" d="M223.8,81.4H286c22.3,0,33.6-7,33.6-20.7V23.5c0-13.8-11.3-20.7-33.6-20.7h-62.1c-4.1,0-6.2,2.1-6.2,6v66.5
					C217.6,79.2,219.8,81.4,223.8,81.4z M234.6,67.7V16.5h51c16.1,0,17.3,5.4,17.3,7v37.1c0,4.3-6.6,7-17.3,7H234.6z"/>
				<path class="st2" d="M286,83.8h-62.1c-5.3,0-8.6-3.3-8.6-8.5V8.8c0-5.3,3.2-8.4,8.6-8.4H286c16.4,0,36,4,36,23.1v37.1
					C322,79.8,302.4,83.8,286,83.8z M223.8,5.2c-2.8,0-3.9,1-3.9,3.7v66.5c0,2.6,1.2,3.8,3.9,3.8H286c21,0,31.3-6,31.3-18.4V23.5
					c0-12.4-10.2-18.4-31.3-18.4H223.8z M285.5,70.1h-53.3V14.2h53.3c17.8,0,19.7,6.6,19.7,9.4v37.1
					C305.2,66.5,297.9,70.1,285.5,70.1z M236.9,65.3h48.6c9.7,0,15-2.4,15-4.6V23.5c0-1.6-3.1-4.6-15-4.6h-48.6V65.3z"/>
			</g>
			<g>
				<path class="st2" d="M390.1,77.7c2.1,2.8,5.1,4.2,9.5,4.2c4.5,0,7.6-1.3,9.6-4.2l47.6-65.4c0.7-0.8,1.1-2,1.1-3.1
					c0-3.9-5-6.9-9.4-6.9c-2.6,0-4.6,1-5.8,2.7L400,64.8L356.7,5.1c-1.4-2-4.1-2.7-6.2-2.7c-4.5,0-9.6,3-9.6,6.8
					c0,1.3,0.5,2.3,1.1,3.1L390.1,77.7z"/>
				<path class="st2" d="M399.6,84.2c-5.2,0-8.9-1.7-11.4-5.1l-48.3-65.5c-0.7-1.1-1.5-2.5-1.5-4.4c0-4.3,4.9-9.1,12-9.1
					c1.3,0,5.8,0.3,8.2,3.7l41.3,57.1l41-57.1c1.6-2.3,4.4-3.7,7.7-3.7c5.6,0,11.8,3.8,11.8,9.2c0,1.6-0.6,3.3-1.6,4.5l-47.6,65.3
					C408.7,82.5,404.9,84.2,399.6,84.2z M343.9,10.9L392,76.3c1.6,2.2,3.9,3.2,7.6,3.2c3.7,0,6.1-1,7.7-3.2l47.8-65.5
					c0.4-0.4,0.6-1,0.6-1.5c0-2.2-3.5-4.5-7-4.5c-1.7,0-3.1,0.6-3.8,1.7L400,68.9L354.7,6.5c-0.8-1.2-2.8-1.7-4.3-1.7
					c-3.5,0-7.3,2.3-7.3,4.4C343.2,9.7,343.4,10.3,343.9,10.9z"/>
			</g>
			<g>
				<path class="st2" d="M512.8,81.4h52.8c4.8,0,5.5-3.5,5.5-6.9c0-3.6-0.7-6.9-5.5-6.9h-52.4c-10.6,0-17.2-2.7-17.2-7V49.5H566
					c4.8,0,5.5-3.3,5.5-6.9c0-3.6-0.7-6.9-5.5-6.9h-69.9V23.5c0-4.4,6.4-7,17.2-7h15.9c4.7,0,5.4-3.3,5.4-6.9s-0.6-6.9-5.4-6.9
					h-16.3c-22.3,0-33.6,7-33.6,20.7v37.1C479.2,74.4,490.5,81.4,512.8,81.4z"/>
				<path class="st2" d="M565.7,83.8h-52.8c-16.4,0-36-4-36-23.1V23.5c0-10.5,6.2-23.1,36-23.1h16.3c5.1,0,7.7,3.1,7.7,9.2
					s-2.6,9.2-7.7,9.2h-15.9c-10.2,0-14.9,2.4-14.9,4.6v9.9H566c5.2,0,7.8,3.1,7.8,9.2s-2.6,9.2-7.8,9.2h-67.6v8.7
					c0,2.3,5.1,4.6,14.9,4.6h52.4c5.2,0,7.8,3.1,7.8,9.2C573.5,80.7,570.9,83.8,565.7,83.8z M512.8,5.2c-21,0-31.3,6-31.3,18.4v37.1
					c0,12.4,10.2,18.4,31.3,18.4h52.8c2.2,0,3.1-0.6,3.1-4.5c0-4.1-0.9-4.5-3.1-4.5h-52.4c-12.3,0-19.6-3.5-19.6-9.4V47.2H566
					c2.1,0,3.1-0.4,3.1-4.5s-0.9-4.5-3.1-4.5h-72.3V23.5c0-6,7.1-9.4,19.6-9.4h15.9c2,0,3-0.4,3-4.5c0-4-1-4.5-3-4.5H512.8z"/>
			</g>
			<g>
				<path class="st2" d="M608.3,81.8c4.4,0,8.5-0.7,8.5-6.1V24.4L683.1,78l0,0c4,3.2,5.2,3.8,9.4,3.8c4.2,0,8.7-0.5,8.7-6.1V8.5
					c0-5.4-4.1-6.1-8.5-6.1c-4.4,0-8.4,0.7-8.4,6.1v51.3L619,6.5c-3.6-2.9-6-4.2-11-4.2c-3.8,0-8.1,0.7-8.1,6.1v67.2
					C599.9,81.1,603.9,81.8,608.3,81.8z"/>
				<path class="st2" d="M692.5,84.2c-4.9,0-6.5-0.9-10.9-4.3l-62.4-50.4v46.3c0,8.5-8.2,8.5-10.9,8.5c-2.7,0-10.8,0-10.8-8.5V8.5
					C597.5,2.9,601,0,608,0c5.7,0,8.6,1.5,12.5,4.7l61.4,50.2V8.5C681.9,0,690,0,692.7,0c2.7,0,10.9,0,10.9,8.5v67.2
					C703.6,84.2,695.5,84.2,692.5,84.2z M684.5,76.2c3.8,3,4.5,3.3,7.9,3.3c5.5,0,6.4-1.1,6.4-3.8V8.5c0-2.5-0.9-3.8-6.2-3.8
					c-5.2,0-6,1.2-6,3.8v56.3L617.5,8.4c-3.4-2.7-5.2-3.6-9.5-3.6c-4.8,0-5.7,1.3-5.7,3.8v67.2c0,2.6,0.9,3.8,6,3.8
					c5.3,0,6.2-1.2,6.2-3.8V19.5L684.5,76.2z"/>
			</g>
			<g>
				<path class="st2" d="M732.7,16.5h31.8v59.2c0,5.4,4,6.1,8.4,6.1c4.4,0,8.5-0.7,8.5-6.1V16.5h31.9c4.8,0,5.5-3.3,5.5-6.9
					s-0.7-6.9-5.5-6.9h-80.7c-4.8,0-5.5,3.3-5.5,6.9S727.9,16.5,732.7,16.5z"/>
				<path class="st2" d="M772.9,84.2c-2.7,0-10.8,0-10.8-8.5V18.9h-29.4c-5.2,0-7.8-3.1-7.8-9.2s2.6-9.2,7.8-9.2h80.7
					c5.2,0,7.8,3.1,7.8,9.2s-2.6,9.2-7.8,9.2h-29.5v56.8C783.8,84.2,775.6,84.2,772.9,84.2z M732.7,5.2c-2.1,0-3.1,0.4-3.1,4.5
					c0,4.1,0.9,4.5,3.1,4.5h34.2v61.6c0,2.6,0.9,3.8,6,3.8c5.3,0,6.2-1.2,6.2-3.8V14.2h34.3c2.1,0,3.1-0.4,3.1-4.5
					c0-4.1-0.9-4.5-3.1-4.5H732.7z"/>
			</g>
			<g>
				<path class="st2" d="M878,81.4h33.8c22.3,0,33.6-7,33.6-20.7V8.5c0-5.4-4-6.1-8.4-6.1c-4.4,0-8.5,0.7-8.5,6.1v52.2
					c0,4.3-6.6,7-17.1,7h-32.9c-10.6,0-17.1-2.7-17.1-7V8.5c0-5.4-4.1-6.1-8.5-6.1c-4.4,0-8.4,0.7-8.4,6.1v52.2
					C844.4,74.4,855.7,81.4,878,81.4z"/>
				<path class="st2" d="M911.8,83.8H878c-16.4,0-36-4-36-23.1V8.5C842,0,850.1,0,852.8,0c2.7,0,10.9,0,10.9,8.5v52.2
					c0,2.3,5.1,4.6,14.7,4.6h32.9c9.7,0,14.7-2.3,14.7-4.6V8.5C926.1,0,934.3,0,937,0c2.7,0,10.8,0,10.8,8.5v52.2
					C947.8,71.2,941.5,83.8,911.8,83.8z M852.8,4.7c-5.2,0-6,1.2-6,3.8v52.2C846.8,73,857,79,878,79h33.8c21,0,31.3-6,31.3-18.4V8.5
					c0-2.6-0.9-3.8-6-3.8c-5.2,0-6.2,1.2-6.2,3.8v52.2c0,5.9-7.3,9.4-19.5,9.4h-32.9c-12.2,0-19.5-3.5-19.5-9.4V8.5
					C859,5.9,858.1,4.7,852.8,4.7z"/>
			</g>
			<g>
				<path class="st2" d="M983.2,81.8c4.4,0,8.5-0.7,8.5-6.1V54.3l62.4,25.9c2.7,1.4,7.3,1.6,9.2,1.6c2.4,0,8.6,0,8.6-6.1
					c0-2.9-1.4-4.7-4.3-5.8l-26.4-10.2c-9.8-3.8-15.6-5.9-19.6-7.3c4.1,0.1,9,0.1,16.7,0.1h4.4c20.3,0,33.4-7.2,33.4-18.2V21
					c0-11.1-13.1-18.2-33.4-18.2h-61.6c-5.2,0-6.3,3.3-6.3,6v66.9C974.8,81.1,978.8,81.8,983.2,81.8z M991.7,39V16.5h49.7
					c11.9,0,17.9,1.9,17.9,5.5v11.4c0,3.7-6,5.5-17.9,5.5H991.7z"/>
				<path class="st2" d="M1063.3,84.2c-2.5,0-7.1-0.2-10.2-1.8l-59-24.5v17.8c0,8.5-8.2,8.5-10.9,8.5c-2.7,0-10.8,0-10.8-8.5V8.8
					c0-5.3,3.3-8.4,8.7-8.4h61.6c21.7,0,35.8,8.1,35.8,20.6v13.3c0,12.5-14,20.6-35.8,20.6h-4.4c-1,0-2,0-3,0c2,0.8,4.3,1.6,6.8,2.6
					l26.4,10.2c3.8,1.4,5.8,4.2,5.8,8.1C1074.3,79.6,1072.4,84.2,1063.3,84.2z M989.4,50.8l65.9,27.4c1.8,1,5.3,1.3,8,1.3
					c5.2,0,6.3-1.4,6.3-3.8c0-1.6-0.5-2.8-2.7-3.6l-26.4-10.2c-10.4-4-16.2-6.1-19.6-7.3l-14.1-5l14.9,0.4c3.9,0.1,8.7,0.1,16.6,0.1
					h4.4c18.9,0,31-6.2,31-15.9V21c0-9.6-12.2-15.9-31-15.9h-61.6c-2.9,0-4,1-4,3.7v66.9c0,2.6,0.9,3.8,6,3.8c5.3,0,6.2-1.2,6.2-3.8
					V50.8z M1041.4,41.3h-52V14.2h52c8.7,0,20.3,0.8,20.3,7.9v11.4C1061.7,40.5,1050.1,41.3,1041.4,41.3z M994.1,36.6h47.3
					c15.3,0,15.5-3.1,15.5-3.2V22.1c0,0-0.2-3.2-15.5-3.2h-47.3V36.6z"/>
			</g>
			<g>
				<path class="st2" d="M1137.3,81.4h52.8c4.8,0,5.5-3.5,5.5-6.9c0-3.6-0.7-6.9-5.5-6.9h-52.4c-10.6,0-17.2-2.7-17.2-7V49.5h69.9
					c4.8,0,5.5-3.3,5.5-6.9c0-3.6-0.7-6.9-5.5-6.9h-69.9V23.5c0-4.4,6.4-7,17.2-7h15.9c4.7,0,5.4-3.3,5.4-6.9s-0.6-6.9-5.4-6.9
					h-16.3c-22.3,0-33.6,7-33.6,20.7v37.1C1103.7,74.4,1115,81.4,1137.3,81.4z"/>
				<path class="st2" d="M1190.1,83.8h-52.8c-16.4,0-36-4-36-23.1V23.5c0-10.5,6.2-23.1,36-23.1h16.3c5.1,0,7.7,3.1,7.7,9.2
					s-2.6,9.2-7.7,9.2h-15.9c-10.2,0-14.9,2.4-14.9,4.6v9.9h67.6c5.2,0,7.8,3.1,7.8,9.2s-2.6,9.2-7.8,9.2h-67.6v8.7
					c0,2.3,5.1,4.6,14.9,4.6h52.4c5.2,0,7.8,3.1,7.8,9.2C1198,80.7,1195.3,83.8,1190.1,83.8z M1137.3,5.2c-21,0-31.3,6-31.3,18.4
					v37.1c0,12.4,10.2,18.4,31.3,18.4h52.8c2.2,0,3.1-0.6,3.1-4.5c0-4.1-0.9-4.5-3.1-4.5h-52.4c-12.3,0-19.6-3.5-19.6-9.4V47.2h72.3
					c2.1,0,3.1-0.4,3.1-4.5s-0.9-4.5-3.1-4.5h-72.3V23.5c0-6,7.1-9.4,19.6-9.4h15.9c2,0,3-0.4,3-4.5c0-4-1-4.5-3-4.5H1137.3z"/>
			</g>
			<g>
				<path class="st2" d="M163.9,175.2H83.2c-4.8,0-5.5,3.3-5.5,6.9c0,3.6,0.7,6.9,5.5,6.9H115v59.2c0,5.4,4,6.1,8.4,6.1
					c4.4,0,8.5-0.7,8.5-6.1v-59.2h31.9c4.8,0,5.5-3.3,5.5-6.9C169.3,178.5,168.7,175.2,163.9,175.2z"/>
				<path class="st2" d="M123.5,256.6c-2.7,0-10.8,0-10.8-8.5v-56.8H83.2c-5.2,0-7.8-3.1-7.8-9.2s2.6-9.2,7.8-9.2h80.7
					c5.2,0,7.8,3.1,7.8,9.2s-2.6,9.2-7.8,9.2h-29.5v56.8C134.4,256.6,126.1,256.6,123.5,256.6z M83.2,177.6c-2.1,0-3.1,0.4-3.1,4.5
					c0,4.1,0.9,4.5,3.1,4.5h34.2v61.6c0,2.6,0.9,3.8,6,3.8c5.3,0,6.2-1.2,6.2-3.8v-61.6h34.3c2.1,0,3.1-0.4,3.1-4.5
					c0-4.1-0.9-4.5-3.1-4.5H83.2z"/>
			</g>
			<g>
				<path class="st2" d="M279,221.9c4.8,0,5.5-3.3,5.5-6.9s-0.7-6.9-5.5-6.9H209v-12.3c0-4.4,6.4-7,17.2-7h15.9
					c4.7,0,5.4-3.3,5.4-6.9c0-3.6-0.6-6.9-5.4-6.9h-16.3c-22.3,0-33.6,7-33.6,20.7v37.1c0,13.8,11.3,20.7,33.6,20.7h52.8
					c4.8,0,5.5-3.5,5.5-6.9c0-3.6-0.7-6.9-5.5-6.9h-52.4c-10.6,0-17.2-2.7-17.2-7v-11.1H279z"/>
				<path class="st2" d="M278.6,256.2h-52.8c-16.4,0-36-4-36-23.1v-37.1c0-10.5,6.2-23.1,36-23.1h16.3c5.1,0,7.7,3.1,7.7,9.2
					s-2.6,9.2-7.7,9.2h-15.9c-10.2,0-14.9,2.4-14.9,4.6v9.9H279c5.2,0,7.8,3.1,7.8,9.2c0,6.1-2.6,9.2-7.8,9.2h-67.6v8.7
					c0,2.3,5.1,4.6,14.9,4.6h52.4c5.2,0,7.8,3.1,7.8,9.2S283.8,256.2,278.6,256.2z M225.8,177.6c-21,0-31.3,6-31.3,18.4v37.1
					c0,12.4,10.2,18.4,31.3,18.4h52.8c2.2,0,3.1-0.6,3.1-4.5c0-4.1-0.9-4.5-3.1-4.5h-52.4c-12.3,0-19.6-3.5-19.6-9.4v-13.5H279
					c2.1,0,3.1-0.4,3.1-4.5c0-4.1-0.9-4.5-3.1-4.5h-72.3v-14.6c0-6,7.1-9.4,19.6-9.4h15.9c2,0,3-0.4,3-4.5c0-4-1-4.5-3-4.5H225.8z"
					/>
			</g>
			<g>
				<path class="st2" d="M345.9,188.9h53.3c4.8,0,5.5-3.3,5.5-6.9c0-3.6-0.7-6.9-5.5-6.9h-53.7c-22.3,0-33.6,7-33.6,20.7v37.1
					c0,13.8,11.3,20.7,33.6,20.7h53.8c5.4,0,5.4-4.5,5.4-6.9c0-3.3-0.4-6.9-5.4-6.9h-53.4c-10.6,0-17.2-2.7-17.2-7v-37.1
					C328.7,191.5,335.1,188.9,345.9,188.9z"/>
				<path class="st2" d="M399.3,256.2h-53.8c-16.4,0-36-4-36-23.1v-37.1c0-10.5,6.2-23.1,36-23.1h53.7c5.2,0,7.8,3.1,7.8,9.2
					s-2.6,9.2-7.8,9.2h-53.3c-10.2,0-14.9,2.4-14.9,4.6v37.1c0,2.3,5.1,4.6,14.9,4.6h53.4c7.7,0,7.7,7,7.7,9.2
					C407,253.1,404.4,256.2,399.3,256.2z M345.5,177.6c-21,0-31.3,6-31.3,18.4v37.1c0,12.4,10.2,18.4,31.3,18.4h53.8
					c2.4,0,3-0.9,3-4.5c0-3.9-0.7-4.5-3-4.5h-53.4c-12.3,0-19.6-3.5-19.6-9.4v-37.1c0-6,7.1-9.4,19.6-9.4h53.3
					c2.1,0,3.1-0.4,3.1-4.5c0-4.1-0.9-4.5-3.1-4.5H345.5z"/>
			</g>
			<g>
				<path class="st2" d="M526.6,174.8c-4.4,0-8.5,0.7-8.5,6.1v27.3h-68.2v-27.3c0-5.4-4.1-6.1-8.5-6.1c-4.4,0-8.4,0.7-8.4,6.1v67.2
					c0,5.4,4,6.1,8.4,6.1c4.4,0,8.5-0.7,8.5-6.1v-26.2h68.2v26.2c0,5.4,4.1,6.1,8.5,6.1c4.4,0,8.4-0.7,8.4-6.1v-67.2
					C535.1,175.5,531,174.8,526.6,174.8z"/>
				<path class="st2" d="M526.6,256.6c-2.7,0-10.9,0-10.9-8.5v-23.8h-63.5v23.8c0,8.5-8.2,8.5-10.9,8.5c-2.7,0-10.8,0-10.8-8.5
					v-67.2c0-8.5,8.1-8.5,10.8-8.5c2.7,0,10.9,0,10.9,8.5v24.9h63.5v-24.9c0-8.5,8.2-8.5,10.9-8.5c2.7,0,10.8,0,10.8,8.5v67.2
					C537.4,256.6,529.3,256.6,526.6,256.6z M447.5,219.6h72.9v28.5c0,2.6,0.9,3.8,6.2,3.8c5.2,0,6-1.2,6-3.8v-67.2
					c0-2.6-0.9-3.8-6-3.8c-5.3,0-6.2,1.2-6.2,3.8v29.7h-72.9v-29.7c0-2.5-0.9-3.8-6.2-3.8c-5.2,0-6,1.2-6,3.8v67.2
					c0,2.6,0.9,3.8,6,3.8c5.3,0,6.2-1.2,6.2-3.8V219.6z"/>
			</g>
		</g>
		<path class="st2" d="M1254.4,147.4c-9,0-16.6,6.3-18.4,15H957.4c-1.4-4.3-5.4-7.2-9.9-7.2c-5.8,0-10.4,4.7-10.4,10.4
			s4.7,10.4,10.4,10.4c4.5,0,8.5-2.9,9.9-7.2h278.5c1.3,9.2,9.2,16,18.6,16c10.3,0,18.8-8.4,18.8-18.8
			C1273.2,155.8,1264.8,147.4,1254.4,147.4z"/>
		<path class="st2" d="M803.9,221.2c-9.8-0.9-18.5,5.8-20.2,15.4h-76.5c-1.9,0-3.7-0.7-5-2.1l-25.8-25.8c-0.9-0.9-2.1-1.4-3.4-1.4
			h-53.8c-2.6,0-4.7,2.1-4.7,4.7v20.3c-4.4,1.4-7.5,5.6-7.4,10.2c0.1,5.4,4.6,10,10,10.2c2.9,0.1,5.6-0.9,7.7-2.9
			c2.1-2,3.2-4.7,3.2-7.5c0-4.5-2.9-8.4-7-9.9v-18.1c0-0.3,0.3-0.6,0.6-0.6H671c0.8,0,1.6,0.3,2.2,0.9l25.8,25.8
			c1.6,1.6,3.8,2.5,6.2,2.5h78.5c1.6,8.9,9.4,15.5,18.5,15.5c5.2,0,10.1-2.2,13.7-5.9c3.6-3.8,5.4-8.8,5-14
			C820.3,229.5,813,222,803.9,221.2z"/>
		<path class="st2" d="M1058.8,221.2c-9.5-0.9-18.3,5.5-20.3,14.8H873.2c-0.8,0-1.6-0.3-2.2-0.9l-52.8-52.8
			c-0.9-0.9-2.1-1.4-3.4-1.4H729c-1.4-4.4-5.5-7.4-10.2-7.3c-5.4,0.1-10,4.6-10.2,10c-0.1,2.9,0.9,5.6,2.9,7.7
			c2,2.1,4.7,3.2,7.5,3.2c4.5,0,8.5-2.9,9.9-7.1h83.8c0.8,0,1.6,0.3,2.2,0.9l52.8,52.8c0.9,0.9,2.1,1.4,3.4,1.4h167.1
			c1.3,9.3,9.1,16.2,18.6,16.2c5.2,0,10.1-2.2,13.7-5.9c3.6-3.8,5.4-8.8,5-14C1075,229.6,1067.8,222.1,1058.8,221.2z"/>
		<path class="st2" d="M1148.5,191.7c-4.6,0-8.6,3-10,7.3H917.8c-1,0-2.1-0.4-2.8-1.2l-70.3-70.3c-1.6-1.6-3.8-2.5-6.2-2.5H37.3
			c-1.4-9.9-10.1-16.8-20.2-16C8,109.8,0.6,117.3,0,126.5c-0.4,6,2,11.7,6.7,15.6c2.6,2.2,5.8,3.6,9.1,4.1
			c10.2,1.5,19.3-5.1,21.2-14.7h799.4c1.9,0,3.7,0.7,5,2.1l70.7,70.7c0.7,0.7,1.7,1.2,2.8,1.2h223.5c1.7,5,7,8.2,12.5,6.8
			c4-1,7.1-4.5,7.7-8.6C1159.7,197.2,1154.7,191.7,1148.5,191.7z"/>
	</g>
</g>
<g id="White" class="st0">
	<g class="st1">
		<g>
			<g>
				<path class="st3" d="M86.8,81.9c2.5,0,4.6-1,5.7-2.6l11.8-17.6H164l12.6,17.6c1.3,1.7,3.3,2.6,5.8,2.6c4.3,0,9.2-2.9,9.2-6.8
					c0-1-0.3-2.1-1-3.1L142.8,6.6l0,0c-2.1-2.8-5.2-4.2-9.5-4.2c-4.5,0-7.6,1.4-9.6,4.2l-45,65.5c-0.4,0.7-0.9,1.7-0.9,2.9
					C77.8,79,82.6,81.9,86.8,81.9z M113.5,48l19.8-29.4L154.2,48H113.5z"/>
				<path class="st3" d="M182.4,84.3c-3.3,0-6-1.3-7.7-3.5l-11.9-16.7h-57.2L94.5,80.6c-1.6,2.3-4.4,3.7-7.7,3.7
					c-5.4,0-11.4-3.8-11.4-9.2c0-1.8,0.7-3.2,1.3-4.1l0.1-0.1l45-65.5c2.5-3.5,6.4-5.2,11.6-5.2c5.1,0,8.8,1.7,11.4,5.1l47.9,65.6
					c0.9,1.4,1.4,2.9,1.4,4.4C194,80.6,187.9,84.3,182.4,84.3z M103.1,59.4h62.2L178.6,78c0.8,1,2.1,1.6,3.8,1.6
					c3.4,0,6.8-2.2,6.8-4.4c0-0.6-0.2-1.2-0.6-1.8L140.9,8c-1.7-2.2-4-3.2-7.6-3.2c-3.7,0-6.2,1-7.7,3.2L80.7,73.4
					c-0.3,0.5-0.6,1.1-0.6,1.6c0,2.2,3.4,4.5,6.7,4.5c1.7,0,3.1-0.6,3.7-1.6L103.1,59.4z M158.8,50.4h-49.8l24.2-36L158.8,50.4z
					 M118,45.6h31.7l-16.3-22.9L118,45.6z"/>
			</g>
			<g>
				<path class="st3" d="M223.8,81.4H286c22.3,0,33.6-7,33.6-20.7V23.5c0-13.8-11.3-20.7-33.6-20.7h-62.1c-4.1,0-6.2,2.1-6.2,6v66.5
					C217.6,79.2,219.8,81.4,223.8,81.4z M234.6,67.7V16.5h51c16.1,0,17.3,5.4,17.3,7v37.1c0,4.3-6.6,7-17.3,7H234.6z"/>
				<path class="st3" d="M286,83.8h-62.1c-5.3,0-8.6-3.3-8.6-8.5V8.8c0-5.3,3.2-8.4,8.6-8.4H286c16.4,0,36,4,36,23.1v37.1
					C322,79.8,302.4,83.8,286,83.8z M223.8,5.2c-2.8,0-3.9,1-3.9,3.7v66.5c0,2.6,1.2,3.8,3.9,3.8H286c21,0,31.3-6,31.3-18.4V23.5
					c0-12.4-10.2-18.4-31.3-18.4H223.8z M285.5,70.1h-53.3V14.2h53.3c17.8,0,19.7,6.6,19.7,9.4v37.1
					C305.2,66.5,297.9,70.1,285.5,70.1z M236.9,65.3h48.6c9.7,0,15-2.4,15-4.6V23.5c0-1.6-3.1-4.6-15-4.6h-48.6V65.3z"/>
			</g>
			<g>
				<path class="st3" d="M390.1,77.7c2.1,2.8,5.1,4.2,9.5,4.2c4.5,0,7.6-1.3,9.6-4.2l47.6-65.4c0.7-0.8,1.1-2,1.1-3.1
					c0-3.9-5-6.9-9.4-6.9c-2.6,0-4.6,1-5.8,2.7L400,64.8L356.7,5.1c-1.4-2-4.1-2.7-6.2-2.7c-4.5,0-9.6,3-9.6,6.8
					c0,1.3,0.5,2.3,1.1,3.1L390.1,77.7z"/>
				<path class="st3" d="M399.6,84.2c-5.2,0-8.9-1.7-11.4-5.1l-48.3-65.5c-0.7-1.1-1.5-2.5-1.5-4.4c0-4.3,4.9-9.1,12-9.1
					c1.3,0,5.8,0.3,8.2,3.7l41.3,57.1l41-57.1c1.6-2.3,4.4-3.7,7.7-3.7c5.6,0,11.8,3.8,11.8,9.2c0,1.6-0.6,3.3-1.6,4.5l-47.6,65.3
					C408.7,82.5,404.9,84.2,399.6,84.2z M343.9,10.9L392,76.3c1.6,2.2,3.9,3.2,7.6,3.2c3.7,0,6.1-1,7.7-3.2l47.8-65.5
					c0.4-0.4,0.6-1,0.6-1.5c0-2.2-3.5-4.5-7-4.5c-1.7,0-3.1,0.6-3.8,1.7L400,68.9L354.7,6.5c-0.8-1.2-2.8-1.7-4.3-1.7
					c-3.5,0-7.3,2.3-7.3,4.4C343.2,9.7,343.4,10.3,343.9,10.9z"/>
			</g>
			<g>
				<path class="st3" d="M512.8,81.4h52.8c4.8,0,5.5-3.5,5.5-6.9c0-3.6-0.7-6.9-5.5-6.9h-52.4c-10.6,0-17.2-2.7-17.2-7V49.5H566
					c4.8,0,5.5-3.3,5.5-6.9c0-3.6-0.7-6.9-5.5-6.9h-69.9V23.5c0-4.4,6.4-7,17.2-7h15.9c4.7,0,5.4-3.3,5.4-6.9s-0.6-6.9-5.4-6.9
					h-16.3c-22.3,0-33.6,7-33.6,20.7v37.1C479.2,74.4,490.5,81.4,512.8,81.4z"/>
				<path class="st3" d="M565.7,83.8h-52.8c-16.4,0-36-4-36-23.1V23.5c0-10.5,6.2-23.1,36-23.1h16.3c5.1,0,7.7,3.1,7.7,9.2
					s-2.6,9.2-7.7,9.2h-15.9c-10.2,0-14.9,2.4-14.9,4.6v9.9H566c5.2,0,7.8,3.1,7.8,9.2s-2.6,9.2-7.8,9.2h-67.6v8.7
					c0,2.3,5.1,4.6,14.9,4.6h52.4c5.2,0,7.8,3.1,7.8,9.2C573.5,80.7,570.9,83.8,565.7,83.8z M512.8,5.2c-21,0-31.3,6-31.3,18.4v37.1
					c0,12.4,10.2,18.4,31.3,18.4h52.8c2.2,0,3.1-0.6,3.1-4.5c0-4.1-0.9-4.5-3.1-4.5h-52.4c-12.3,0-19.6-3.5-19.6-9.4V47.2H566
					c2.1,0,3.1-0.4,3.1-4.5s-0.9-4.5-3.1-4.5h-72.3V23.5c0-6,7.1-9.4,19.6-9.4h15.9c2,0,3-0.4,3-4.5c0-4-1-4.5-3-4.5H512.8z"/>
			</g>
			<g>
				<path class="st3" d="M608.3,81.8c4.4,0,8.5-0.7,8.5-6.1V24.4L683.1,78l0,0c4,3.2,5.2,3.8,9.4,3.8c4.2,0,8.7-0.5,8.7-6.1V8.5
					c0-5.4-4.1-6.1-8.5-6.1c-4.4,0-8.4,0.7-8.4,6.1v51.3L619,6.5c-3.6-2.9-6-4.2-11-4.2c-3.8,0-8.1,0.7-8.1,6.1v67.2
					C599.9,81.1,603.9,81.8,608.3,81.8z"/>
				<path class="st3" d="M692.5,84.2c-4.9,0-6.5-0.9-10.9-4.3l-62.4-50.4v46.3c0,8.5-8.2,8.5-10.9,8.5c-2.7,0-10.8,0-10.8-8.5V8.5
					C597.5,2.9,601,0,608,0c5.7,0,8.6,1.5,12.5,4.7l61.4,50.2V8.5C681.9,0,690,0,692.7,0c2.7,0,10.9,0,10.9,8.5v67.2
					C703.6,84.2,695.5,84.2,692.5,84.2z M684.5,76.2c3.8,3,4.5,3.3,7.9,3.3c5.5,0,6.4-1.1,6.4-3.8V8.5c0-2.5-0.9-3.8-6.2-3.8
					c-5.2,0-6,1.2-6,3.8v56.3L617.5,8.4c-3.4-2.7-5.2-3.6-9.5-3.6c-4.8,0-5.7,1.3-5.7,3.8v67.2c0,2.6,0.9,3.8,6,3.8
					c5.3,0,6.2-1.2,6.2-3.8V19.5L684.5,76.2z"/>
			</g>
			<g>
				<path class="st3" d="M732.7,16.5h31.8v59.2c0,5.4,4,6.1,8.4,6.1c4.4,0,8.5-0.7,8.5-6.1V16.5h31.9c4.8,0,5.5-3.3,5.5-6.9
					s-0.7-6.9-5.5-6.9h-80.7c-4.8,0-5.5,3.3-5.5,6.9S727.9,16.5,732.7,16.5z"/>
				<path class="st3" d="M772.9,84.2c-2.7,0-10.8,0-10.8-8.5V18.9h-29.4c-5.2,0-7.8-3.1-7.8-9.2s2.6-9.2,7.8-9.2h80.7
					c5.2,0,7.8,3.1,7.8,9.2s-2.6,9.2-7.8,9.2h-29.5v56.8C783.8,84.2,775.6,84.2,772.9,84.2z M732.7,5.2c-2.1,0-3.1,0.4-3.1,4.5
					c0,4.1,0.9,4.5,3.1,4.5h34.2v61.6c0,2.6,0.9,3.8,6,3.8c5.3,0,6.2-1.2,6.2-3.8V14.2h34.3c2.1,0,3.1-0.4,3.1-4.5
					c0-4.1-0.9-4.5-3.1-4.5H732.7z"/>
			</g>
			<g>
				<path class="st3" d="M878,81.4h33.8c22.3,0,33.6-7,33.6-20.7V8.5c0-5.4-4-6.1-8.4-6.1c-4.4,0-8.5,0.7-8.5,6.1v52.2
					c0,4.3-6.6,7-17.1,7h-32.9c-10.6,0-17.1-2.7-17.1-7V8.5c0-5.4-4.1-6.1-8.5-6.1c-4.4,0-8.4,0.7-8.4,6.1v52.2
					C844.4,74.4,855.7,81.4,878,81.4z"/>
				<path class="st3" d="M911.8,83.8H878c-16.4,0-36-4-36-23.1V8.5C842,0,850.1,0,852.8,0c2.7,0,10.9,0,10.9,8.5v52.2
					c0,2.3,5.1,4.6,14.7,4.6h32.9c9.7,0,14.7-2.3,14.7-4.6V8.5C926.1,0,934.3,0,937,0c2.7,0,10.8,0,10.8,8.5v52.2
					C947.8,71.2,941.5,83.8,911.8,83.8z M852.8,4.7c-5.2,0-6,1.2-6,3.8v52.2C846.8,73,857,79,878,79h33.8c21,0,31.3-6,31.3-18.4V8.5
					c0-2.6-0.9-3.8-6-3.8c-5.2,0-6.2,1.2-6.2,3.8v52.2c0,5.9-7.3,9.4-19.5,9.4h-32.9c-12.2,0-19.5-3.5-19.5-9.4V8.5
					C859,5.9,858.1,4.7,852.8,4.7z"/>
			</g>
			<g>
				<path class="st3" d="M983.2,81.8c4.4,0,8.5-0.7,8.5-6.1V54.3l62.4,25.9c2.7,1.4,7.3,1.6,9.2,1.6c2.4,0,8.6,0,8.6-6.1
					c0-2.9-1.4-4.7-4.3-5.8l-26.4-10.2c-9.8-3.8-15.6-5.9-19.6-7.3c4.1,0.1,9,0.1,16.7,0.1h4.4c20.3,0,33.4-7.2,33.4-18.2V21
					c0-11.1-13.1-18.2-33.4-18.2h-61.6c-5.2,0-6.3,3.3-6.3,6v66.9C974.8,81.1,978.8,81.8,983.2,81.8z M991.7,39V16.5h49.7
					c11.9,0,17.9,1.9,17.9,5.5v11.4c0,3.7-6,5.5-17.9,5.5H991.7z"/>
				<path class="st3" d="M1063.3,84.2c-2.5,0-7.1-0.2-10.2-1.8l-59-24.5v17.8c0,8.5-8.2,8.5-10.9,8.5c-2.7,0-10.8,0-10.8-8.5V8.8
					c0-5.3,3.3-8.4,8.7-8.4h61.6c21.7,0,35.8,8.1,35.8,20.6v13.3c0,12.5-14,20.6-35.8,20.6h-4.4c-1,0-2,0-3,0c2,0.8,4.3,1.6,6.8,2.6
					l26.4,10.2c3.8,1.4,5.8,4.2,5.8,8.1C1074.3,79.6,1072.4,84.2,1063.3,84.2z M989.4,50.8l65.9,27.4c1.8,1,5.3,1.3,8,1.3
					c5.2,0,6.3-1.4,6.3-3.8c0-1.6-0.5-2.8-2.7-3.6l-26.4-10.2c-10.4-4-16.2-6.1-19.6-7.3l-14.1-5l14.9,0.4c3.9,0.1,8.7,0.1,16.6,0.1
					h4.4c18.9,0,31-6.2,31-15.9V21c0-9.6-12.2-15.9-31-15.9h-61.6c-2.9,0-4,1-4,3.7v66.9c0,2.6,0.9,3.8,6,3.8c5.3,0,6.2-1.2,6.2-3.8
					V50.8z M1041.4,41.3h-52V14.2h52c8.7,0,20.3,0.8,20.3,7.9v11.4C1061.7,40.5,1050.1,41.3,1041.4,41.3z M994.1,36.6h47.3
					c15.3,0,15.5-3.1,15.5-3.2V22.1c0,0-0.2-3.2-15.5-3.2h-47.3V36.6z"/>
			</g>
			<g>
				<path class="st3" d="M1137.3,81.4h52.8c4.8,0,5.5-3.5,5.5-6.9c0-3.6-0.7-6.9-5.5-6.9h-52.4c-10.6,0-17.2-2.7-17.2-7V49.5h69.9
					c4.8,0,5.5-3.3,5.5-6.9c0-3.6-0.7-6.9-5.5-6.9h-69.9V23.5c0-4.4,6.4-7,17.2-7h15.9c4.7,0,5.4-3.3,5.4-6.9s-0.6-6.9-5.4-6.9
					h-16.3c-22.3,0-33.6,7-33.6,20.7v37.1C1103.7,74.4,1115,81.4,1137.3,81.4z"/>
				<path class="st3" d="M1190.1,83.8h-52.8c-16.4,0-36-4-36-23.1V23.5c0-10.5,6.2-23.1,36-23.1h16.3c5.1,0,7.7,3.1,7.7,9.2
					s-2.6,9.2-7.7,9.2h-15.9c-10.2,0-14.9,2.4-14.9,4.6v9.9h67.6c5.2,0,7.8,3.1,7.8,9.2s-2.6,9.2-7.8,9.2h-67.6v8.7
					c0,2.3,5.1,4.6,14.9,4.6h52.4c5.2,0,7.8,3.1,7.8,9.2C1198,80.7,1195.3,83.8,1190.1,83.8z M1137.3,5.2c-21,0-31.3,6-31.3,18.4
					v37.1c0,12.4,10.2,18.4,31.3,18.4h52.8c2.2,0,3.1-0.6,3.1-4.5c0-4.1-0.9-4.5-3.1-4.5h-52.4c-12.3,0-19.6-3.5-19.6-9.4V47.2h72.3
					c2.1,0,3.1-0.4,3.1-4.5s-0.9-4.5-3.1-4.5h-72.3V23.5c0-6,7.1-9.4,19.6-9.4h15.9c2,0,3-0.4,3-4.5c0-4-1-4.5-3-4.5H1137.3z"/>
			</g>
			<g>
				<path class="st3" d="M163.9,175.2H83.2c-4.8,0-5.5,3.3-5.5,6.9c0,3.6,0.7,6.9,5.5,6.9H115v59.2c0,5.4,4,6.1,8.4,6.1
					c4.4,0,8.5-0.7,8.5-6.1v-59.2h31.9c4.8,0,5.5-3.3,5.5-6.9C169.3,178.5,168.7,175.2,163.9,175.2z"/>
				<path class="st3" d="M123.5,256.6c-2.7,0-10.8,0-10.8-8.5v-56.8H83.2c-5.2,0-7.8-3.1-7.8-9.2s2.6-9.2,7.8-9.2h80.7
					c5.2,0,7.8,3.1,7.8,9.2s-2.6,9.2-7.8,9.2h-29.5v56.8C134.4,256.6,126.1,256.6,123.5,256.6z M83.2,177.6c-2.1,0-3.1,0.4-3.1,4.5
					c0,4.1,0.9,4.5,3.1,4.5h34.2v61.6c0,2.6,0.9,3.8,6,3.8c5.3,0,6.2-1.2,6.2-3.8v-61.6h34.3c2.1,0,3.1-0.4,3.1-4.5
					c0-4.1-0.9-4.5-3.1-4.5H83.2z"/>
			</g>
			<g>
				<path class="st3" d="M279,221.9c4.8,0,5.5-3.3,5.5-6.9s-0.7-6.9-5.5-6.9H209v-12.3c0-4.4,6.4-7,17.2-7h15.9
					c4.7,0,5.4-3.3,5.4-6.9c0-3.6-0.6-6.9-5.4-6.9h-16.3c-22.3,0-33.6,7-33.6,20.7v37.1c0,13.8,11.3,20.7,33.6,20.7h52.8
					c4.8,0,5.5-3.5,5.5-6.9c0-3.6-0.7-6.9-5.5-6.9h-52.4c-10.6,0-17.2-2.7-17.2-7v-11.1H279z"/>
				<path class="st3" d="M278.6,256.2h-52.8c-16.4,0-36-4-36-23.1v-37.1c0-10.5,6.2-23.1,36-23.1h16.3c5.1,0,7.7,3.1,7.7,9.2
					s-2.6,9.2-7.7,9.2h-15.9c-10.2,0-14.9,2.4-14.9,4.6v9.9H279c5.2,0,7.8,3.1,7.8,9.2c0,6.1-2.6,9.2-7.8,9.2h-67.6v8.7
					c0,2.3,5.1,4.6,14.9,4.6h52.4c5.2,0,7.8,3.1,7.8,9.2S283.8,256.2,278.6,256.2z M225.8,177.6c-21,0-31.3,6-31.3,18.4v37.1
					c0,12.4,10.2,18.4,31.3,18.4h52.8c2.2,0,3.1-0.6,3.1-4.5c0-4.1-0.9-4.5-3.1-4.5h-52.4c-12.3,0-19.6-3.5-19.6-9.4v-13.5H279
					c2.1,0,3.1-0.4,3.1-4.5c0-4.1-0.9-4.5-3.1-4.5h-72.3v-14.6c0-6,7.1-9.4,19.6-9.4h15.9c2,0,3-0.4,3-4.5c0-4-1-4.5-3-4.5H225.8z"
					/>
			</g>
			<g>
				<path class="st3" d="M345.9,188.9h53.3c4.8,0,5.5-3.3,5.5-6.9c0-3.6-0.7-6.9-5.5-6.9h-53.7c-22.3,0-33.6,7-33.6,20.7v37.1
					c0,13.8,11.3,20.7,33.6,20.7h53.8c5.4,0,5.4-4.5,5.4-6.9c0-3.3-0.4-6.9-5.4-6.9h-53.4c-10.6,0-17.2-2.7-17.2-7v-37.1
					C328.7,191.5,335.1,188.9,345.9,188.9z"/>
				<path class="st3" d="M399.3,256.2h-53.8c-16.4,0-36-4-36-23.1v-37.1c0-10.5,6.2-23.1,36-23.1h53.7c5.2,0,7.8,3.1,7.8,9.2
					s-2.6,9.2-7.8,9.2h-53.3c-10.2,0-14.9,2.4-14.9,4.6v37.1c0,2.3,5.1,4.6,14.9,4.6h53.4c7.7,0,7.7,7,7.7,9.2
					C407,253.1,404.4,256.2,399.3,256.2z M345.5,177.6c-21,0-31.3,6-31.3,18.4v37.1c0,12.4,10.2,18.4,31.3,18.4h53.8
					c2.4,0,3-0.9,3-4.5c0-3.9-0.7-4.5-3-4.5h-53.4c-12.3,0-19.6-3.5-19.6-9.4v-37.1c0-6,7.1-9.4,19.6-9.4h53.3
					c2.1,0,3.1-0.4,3.1-4.5c0-4.1-0.9-4.5-3.1-4.5H345.5z"/>
			</g>
			<g>
				<path class="st3" d="M526.6,174.8c-4.4,0-8.5,0.7-8.5,6.1v27.3h-68.2v-27.3c0-5.4-4.1-6.1-8.5-6.1c-4.4,0-8.4,0.7-8.4,6.1v67.2
					c0,5.4,4,6.1,8.4,6.1c4.4,0,8.5-0.7,8.5-6.1v-26.2h68.2v26.2c0,5.4,4.1,6.1,8.5,6.1c4.4,0,8.4-0.7,8.4-6.1v-67.2
					C535.1,175.5,531,174.8,526.6,174.8z"/>
				<path class="st3" d="M526.6,256.6c-2.7,0-10.9,0-10.9-8.5v-23.8h-63.5v23.8c0,8.5-8.2,8.5-10.9,8.5c-2.7,0-10.8,0-10.8-8.5
					v-67.2c0-8.5,8.1-8.5,10.8-8.5c2.7,0,10.9,0,10.9,8.5v24.9h63.5v-24.9c0-8.5,8.2-8.5,10.9-8.5c2.7,0,10.8,0,10.8,8.5v67.2
					C537.4,256.6,529.3,256.6,526.6,256.6z M447.5,219.6h72.9v28.5c0,2.6,0.9,3.8,6.2,3.8c5.2,0,6-1.2,6-3.8v-67.2
					c0-2.6-0.9-3.8-6-3.8c-5.3,0-6.2,1.2-6.2,3.8v29.7h-72.9v-29.7c0-2.5-0.9-3.8-6.2-3.8c-5.2,0-6,1.2-6,3.8v67.2
					c0,2.6,0.9,3.8,6,3.8c5.3,0,6.2-1.2,6.2-3.8V219.6z"/>
			</g>
		</g>
		<path class="st3" d="M1254.4,147.4c-9,0-16.6,6.3-18.4,15H957.4c-1.4-4.3-5.4-7.2-9.9-7.2c-5.8,0-10.4,4.7-10.4,10.4
			s4.7,10.4,10.4,10.4c4.5,0,8.5-2.9,9.9-7.2h278.5c1.3,9.2,9.2,16,18.6,16c10.3,0,18.8-8.4,18.8-18.8
			C1273.2,155.8,1264.8,147.4,1254.4,147.4z"/>
		<path class="st3" d="M803.9,221.2c-9.8-0.9-18.5,5.8-20.2,15.4h-76.5c-1.9,0-3.7-0.7-5-2.1l-25.8-25.8c-0.9-0.9-2.1-1.4-3.4-1.4
			h-53.8c-2.6,0-4.7,2.1-4.7,4.7v20.3c-4.4,1.4-7.5,5.6-7.4,10.2c0.1,5.4,4.6,10,10,10.2c2.9,0.1,5.6-0.9,7.7-2.9
			c2.1-2,3.2-4.7,3.2-7.5c0-4.5-2.9-8.4-7-9.9v-18.1c0-0.3,0.3-0.6,0.6-0.6H671c0.8,0,1.6,0.3,2.2,0.9l25.8,25.8
			c1.6,1.6,3.8,2.5,6.2,2.5h78.5c1.6,8.9,9.4,15.5,18.5,15.5c5.2,0,10.1-2.2,13.7-5.9c3.6-3.8,5.4-8.8,5-14
			C820.3,229.5,813,222,803.9,221.2z"/>
		<path class="st3" d="M1058.8,221.2c-9.5-0.9-18.3,5.5-20.3,14.8H873.2c-0.8,0-1.6-0.3-2.2-0.9l-52.8-52.8
			c-0.9-0.9-2.1-1.4-3.4-1.4H729c-1.4-4.4-5.5-7.4-10.2-7.3c-5.4,0.1-10,4.6-10.2,10c-0.1,2.9,0.9,5.6,2.9,7.7
			c2,2.1,4.7,3.2,7.5,3.2c4.5,0,8.5-2.9,9.9-7.1h83.8c0.8,0,1.6,0.3,2.2,0.9l52.8,52.8c0.9,0.9,2.1,1.4,3.4,1.4h167.1
			c1.3,9.3,9.1,16.2,18.6,16.2c5.2,0,10.1-2.2,13.7-5.9c3.6-3.8,5.4-8.8,5-14C1075,229.6,1067.8,222.1,1058.8,221.2z"/>
		<path class="st3" d="M1148.5,191.7c-4.6,0-8.6,3-10,7.3H917.8c-1,0-2.1-0.4-2.8-1.2l-70.3-70.3c-1.6-1.6-3.8-2.5-6.2-2.5H37.3
			c-1.4-9.9-10.1-16.8-20.2-16C8,109.8,0.6,117.3,0,126.5c-0.4,6,2,11.7,6.7,15.6c2.6,2.2,5.8,3.6,9.1,4.1
			c10.2,1.5,19.3-5.1,21.2-14.7h799.4c1.9,0,3.7,0.7,5,2.1l70.7,70.7c0.7,0.7,1.7,1.2,2.8,1.2h223.5c1.7,5,7,8.2,12.5,6.8
			c4-1,7.1-4.5,7.7-8.6C1159.7,197.2,1154.7,191.7,1148.5,191.7z"/>
	</g>
</g>
</svg>
